<?xml version="1.0" standalone="no"?>
<!DOCTYPE svg PUBLIC "-//W3C//DTD SVG 20010904//EN"
 "http://www.w3.org/TR/2001/REC-SVG-20010904/DTD/svg10.dtd">
<svg version="1.0" xmlns="http://www.w3.org/2000/svg"
 width="428.000000pt" height="112.000000pt" viewBox="0 0 428.000000 112.000000"
 preserveAspectRatio="xMidYMid meet">

<g transform="translate(0.000000,112.000000) scale(0.100000,-0.100000)"
fill="#000000" stroke="none">
<path d="M1558 1013 c-16 -4 -17 -22 -12 -205 3 -141 1 -205 -7 -214 -9 -11
-5 -14 22 -14 26 0 30 3 21 12 -15 15 -17 178 -2 178 6 0 33 -12 61 -26 l51
-25 -4 -70 -3 -69 29 0 c23 0 26 3 17 14 -8 10 -11 73 -9 215 3 192 2 201 -16
201 -18 0 -19 -7 -14 -135 3 -74 3 -136 1 -139 -3 -3 -32 9 -65 26 l-60 30 4
114 c2 63 3 113 3 113 0 -1 -8 -3 -17 -6z"/>
<path d="M2090 1011 c0 -4 5 -12 11 -18 6 -6 55 -98 109 -204 54 -106 103
-195 109 -197 19 -6 12 42 -14 88 -14 25 -57 109 -97 187 -57 112 -76 142 -95
146 -13 2 -23 1 -23 -2z"/>
<path d="M1285 999 c-4 -6 -10 -102 -13 -215 -7 -200 -7 -204 13 -204 19 0 20
6 18 127 -5 272 -6 303 -9 303 -1 0 -6 -5 -9 -11z"/>
<path d="M1426 994 c-5 -14 -4 -15 9 -4 17 14 19 20 6 20 -5 0 -12 -7 -15 -16z"/>
<path d="M1864 993 c24 -78 106 -387 106 -399 0 -8 10 -14 23 -14 l24 0 -18
53 c-36 106 -99 351 -95 364 4 9 -3 13 -20 13 -20 0 -24 -4 -20 -17z"/>
<path d="M2315 1000 c3 -5 8 -10 11 -10 2 0 4 5 4 10 0 6 -5 10 -11 10 -5 0
-7 -4 -4 -10z"/>
<path d="M1342 864 c-6 -10 -1 -39 14 -83 45 -134 72 -181 139 -247 36 -35 70
-64 75 -64 19 0 10 21 -13 29 -35 14 -101 91 -132 156 -34 72 -76 205 -69 216
3 5 3 9 0 9 -3 0 -9 -7 -14 -16z"/>
<path d="M1779 658 c-7 -55 5 -78 40 -78 28 0 61 29 61 54 0 6 -7 0 -16 -12
-11 -16 -24 -22 -42 -20 -24 3 -28 8 -32 48 l-6 45 -5 -37z"/>
<path d="M1886 675 c-9 -26 -7 -32 5 -12 6 10 9 21 6 23 -2 3 -7 -2 -11 -11z"/>
<path d="M2090 590 c0 -5 7 -10 16 -10 8 0 12 5 9 10 -3 6 -10 10 -16 10 -5 0
-9 -4 -9 -10z"/>
<path d="M1340 526 c0 -3 6 -11 14 -19 8 -8 59 -104 115 -213 l100 -199 -1 70
c0 43 -3 59 -7 43 -5 -24 -17 -5 -94 147 -68 134 -93 175 -108 175 -10 0 -19
-2 -19 -4z"/>
<path d="M1555 520 c4 -6 11 -8 16 -5 14 9 11 15 -7 15 -8 0 -12 -5 -9 -10z"/>
<path d="M1674 500 c5 -27 3 -30 -22 -30 l-27 0 24 -13 c24 -12 24 -14 27
-175 2 -97 -1 -162 -7 -162 -5 0 -9 -4 -9 -10 0 -5 10 -10 23 -10 22 0 22 1
22 158 0 86 2 161 3 165 2 4 15 1 28 -7 13 -9 35 -23 49 -32 14 -9 25 -13 25
-10 0 3 -25 22 -55 42 -31 19 -53 39 -50 43 10 17 -7 71 -22 71 -12 0 -14 -7
-9 -30z"/>
<path d="M1841 514 c0 -11 3 -14 6 -6 3 7 2 16 -1 19 -3 4 -6 -2 -5 -13z"/>
<path d="M1915 315 c0 -208 1 -215 20 -215 19 0 20 6 17 207 -2 157 1 209 10
215 8 5 2 8 -17 8 l-30 0 0 -215z"/>
<path d="M2086 514 c-5 -14 -4 -15 9 -4 17 14 19 20 6 20 -5 0 -12 -7 -15 -16z"/>
<path d="M2208 323 c2 -160 0 -208 -10 -215 -8 -5 -2 -8 17 -8 l30 0 0 215 c0
208 -1 215 -20 215 -19 0 -20 -6 -17 -207z"/>
<path d="M1598 473 c7 -3 16 -2 19 1 4 3 -2 6 -13 5 -11 0 -14 -3 -6 -6z"/>
<path d="M1564 345 c0 -60 1 -84 3 -52 2 32 2 81 0 110 -2 29 -3 3 -3 -58z"/>
<path d="M1992 383 c-10 -17 -6 -37 22 -112 18 -49 45 -110 60 -135 28 -49
129 -140 147 -134 6 2 -7 17 -30 32 -68 47 -130 160 -171 310 -15 55 -18 58
-28 39z"/>
<path d="M1340 123 c0 -13 5 -23 10 -23 13 0 13 11 0 30 -8 12 -10 11 -10 -7z"/>
<path d="M1840 120 c0 -5 5 -10 11 -10 5 0 7 5 4 10 -3 6 -8 10 -11 10 -2 0
-4 -4 -4 -10z"/>
</g>
</svg>
